<?xml version="1.0" encoding="UTF-8" standalone="no"?>
<svg
   xmlns:dc="http://purl.org/dc/elements/1.1/"
   xmlns:cc="http://creativecommons.org/ns#"
   xmlns:rdf="http://www.w3.org/1999/02/22-rdf-syntax-ns#"
   xmlns:svg="http://www.w3.org/2000/svg"
   xmlns="http://www.w3.org/2000/svg"
   viewBox="0 0 176 226.66667"
   height="226.66667"
   width="176"
   xml:space="preserve"
   id="svg2"
   version="1.1"><metadata
     id="metadata8"><rdf:RDF><cc:Work
         rdf:about=""><dc:format>image/svg+xml</dc:format><dc:type
           rdf:resource="http://purl.org/dc/dcmitype/StillImage" /></cc:Work></rdf:RDF></metadata><defs
     id="defs6" /><g
     transform="matrix(1.3333333,0,0,-1.3333333,0,226.66667)"
     id="g10"><g
       transform="scale(0.1)"
       id="g12"><path
         id="path14"
         style="fill:#231f20;fill-opacity:1;fill-rule:nonzero;stroke:none"
         d="m 316.691,511.5 c 0,-10.562 -1.211,-20.535 -3.632,-29.922 -2.418,-9.387 -6.196,-17.598 -11.329,-24.64 -5.136,-7.04 -11.769,-12.653 -19.91,-16.829 -8.14,-4.183 -17.929,-6.269 -29.367,-6.269 -11.297,0 -20.937,2.125 -28.933,6.379 -7.993,4.254 -14.485,9.937 -19.469,17.051 -4.988,7.113 -8.617,15.359 -10.891,24.75 -2.273,9.382 -3.41,19.136 -3.41,29.257 0,10.121 1.246,19.762 3.742,28.93 2.492,9.168 6.379,17.234 11.656,24.199 5.282,6.969 11.993,12.504 20.133,16.614 8.137,4.105 17.856,6.16 29.149,6.16 11,0 20.425,-1.981 28.269,-5.942 7.848,-3.957 14.301,-9.351 19.364,-16.172 5.058,-6.82 8.761,-14.847 11.105,-24.086 2.348,-9.242 3.523,-19.07 3.523,-29.48 z m -20.023,-0.223 c 0,7.922 -0.73,15.403 -2.199,22.438 -1.465,7.043 -3.848,13.238 -7.149,18.594 -3.3,5.351 -7.703,9.57 -13.199,12.648 -5.5,3.082 -12.211,4.621 -20.129,4.621 -8.359,0 -15.328,-1.539 -20.902,-4.621 -5.57,-3.078 -10.082,-7.297 -13.527,-12.648 -3.45,-5.356 -5.907,-11.551 -7.372,-18.594 -1.468,-7.035 -2.199,-14.516 -2.199,-22.438 0,-7.918 0.731,-15.511 2.199,-22.769 1.465,-7.262 3.887,-13.711 7.258,-19.36 3.375,-5.644 7.813,-10.121 13.309,-13.421 5.504,-3.301 12.359,-4.95 20.574,-4.95 8.066,0 14.887,1.649 20.457,4.95 5.574,3.3 10.047,7.777 13.422,13.421 3.371,5.649 5.793,12.098 7.258,19.36 1.469,7.258 2.199,14.851 2.199,22.769 z m 68.203,-53.457 c 0,-2.203 0.074,-4.07 0.219,-5.613 0.148,-1.539 0.551,-2.824 1.211,-3.852 0.66,-1.023 1.683,-1.796 3.078,-2.308 1.394,-0.512 3.41,-0.77 6.051,-0.77 v -7.918 c -1.321,-0.441 -3.117,-0.808 -5.387,-1.101 -2.273,-0.293 -4.516,-0.442 -6.715,-0.442 -4.25,0 -7.515,0.661 -9.789,1.981 -2.273,1.32 -3.957,3.082 -5.059,5.281 -1.101,2.199 -1.761,4.656 -1.98,7.371 -0.219,2.711 -0.328,5.387 -0.328,8.028 v 134.644 h 1.316 c 0.297,0 0.7,0.035 1.211,0.106 0.512,0.074 0.992,0.113 1.43,0.113 4.105,0 7.59,-1.067 10.449,-3.192 2.86,-2.125 4.293,-5.976 4.293,-11.55 z m 34.32,83.817 h 1.321 c 0.293,0 0.695,0.035 1.211,0.109 0.511,0.074 0.988,0.113 1.425,0.113 4.11,0 7.594,-1.062 10.45,-3.191 2.859,-2.129 4.293,-5.977 4.293,-11.551 v -70.179 c 0,-4.25 0.621,-7.258 1.871,-9.02 1.242,-1.762 4.14,-2.641 8.687,-2.641 v -7.918 c -1.316,-0.441 -3.117,-0.808 -5.39,-1.101 -2.274,-0.293 -4.508,-0.442 -6.707,-0.442 -4.254,0 -7.52,0.661 -9.793,1.981 -2.274,1.32 -3.957,3.082 -5.059,5.281 -1.102,2.199 -1.762,4.656 -1.98,7.371 -0.219,2.711 -0.329,5.387 -0.329,8.028 z m 20.457,32.781 c 0,-3.371 -1.136,-6.195 -3.41,-8.469 -2.269,-2.273 -5.093,-3.41 -8.468,-3.41 -3.372,0 -6.196,1.137 -8.469,3.41 -2.274,2.274 -3.41,5.098 -3.41,8.469 0,3.668 1.136,6.676 3.41,9.02 2.273,2.347 5.097,3.519 8.469,3.519 3.375,0 6.199,-1.172 8.468,-3.519 2.274,-2.344 3.41,-5.352 3.41,-9.02 z m 83.602,-31.461 c 5.281,0 10.707,-1.098 16.277,-3.301 5.575,-2.199 9.754,-5.644 12.543,-10.34 3.371,3.668 7.957,6.86 13.75,9.571 5.793,2.715 12.43,4.07 19.91,4.07 9.536,0 16.942,-2.199 22.219,-6.598 5.281,-4.402 8.653,-9.902 10.121,-16.5 0.731,-2.933 1.172,-6.199 1.321,-9.793 0.144,-3.589 0.218,-7.074 0.218,-10.449 v -62.48 H 580.91 v 61.82 c 0,2.789 -0.035,5.465 -0.109,8.031 -0.074,2.567 -0.477,4.95 -1.211,7.149 -1.027,3.812 -3.117,6.746 -6.27,8.801 -3.152,2.054 -7.957,3.082 -14.41,3.082 -4.84,0 -9.351,-1.028 -13.531,-3.082 -4.18,-2.055 -7.297,-4.329 -9.348,-6.821 0.289,-2.492 0.512,-5.097 0.66,-7.808 0.145,-2.715 0.215,-5.539 0.215,-8.473 v -62.699 h -18.695 v 61.82 c 0,3.078 -0.148,5.977 -0.441,8.688 -0.293,2.718 -0.805,5.171 -1.54,7.371 -2.347,7.336 -8.949,11.004 -19.8,11.004 -3.227,0 -6.344,-0.442 -9.348,-1.325 -3.008,-0.879 -5.684,-2.05 -8.031,-3.515 -2.348,-1.469 -4.254,-3.117 -5.723,-4.953 -1.465,-1.832 -2.199,-3.629 -2.199,-5.387 V 437.137 H 452.43 V 540.98 h 1.32 c 0.441,0 0.918,0.032 1.43,0.106 0.511,0.074 0.988,0.113 1.429,0.113 3.813,0 6.93,-0.918 9.352,-2.75 2.418,-1.836 3.922,-4.66 4.508,-8.472 3.375,3.523 7.847,6.562 13.422,9.132 5.57,2.563 12.027,3.848 19.359,3.848 z m 133.102,-1.945 c 3.519,0 6.562,-0.805 9.128,-2.418 2.567,-1.614 4.29,-4.328 5.172,-8.141 2.786,3.449 6.672,6.383 11.657,8.836 4.988,2.457 11.222,3.668 18.703,3.668 5.718,0 11.109,-0.953 16.168,-2.859 5.058,-1.907 9.535,-4.95 13.422,-9.129 3.886,-4.18 6.964,-9.61 9.238,-16.281 2.273,-6.672 3.41,-14.852 3.41,-24.532 0,-10.996 -1.355,-20.129 -4.07,-27.386 -2.715,-7.262 -6.231,-13.02 -10.559,-17.274 -4.328,-4.25 -9.133,-7.258 -14.41,-9.019 -5.281,-1.762 -10.414,-2.637 -15.398,-2.637 -7.922,0 -14.157,1.355 -18.704,4.07 -4.546,2.711 -7.625,5.168 -9.238,7.367 v -55.66 h -18.703 v 151.18 h 1.32 c 0.442,0 0.879,0.035 1.325,0.109 0.437,0.074 0.953,0.106 1.539,0.106 z m 66.878,-52.063 c 0,5.278 -0.476,10.227 -1.429,14.922 -0.953,4.656 -2.492,8.692 -4.621,12.063 -2.125,3.375 -4.989,6.015 -8.578,7.996 -3.594,1.976 -8.032,2.968 -13.313,2.968 -7.039,0 -12.867,-1.468 -17.488,-4.402 -4.621,-2.894 -6.93,-6.414 -6.93,-10.519 v -50.016 c 0.879,-1.176 2.055,-2.453 3.52,-3.852 1.464,-1.39 3.261,-2.636 5.39,-3.812 2.125,-1.172 4.543,-2.199 7.262,-3.078 2.711,-0.879 5.609,-1.321 8.687,-1.321 9.094,0 15.95,3.375 20.571,10.082 4.621,6.747 6.929,16.391 6.929,28.969 z m 47.301,52.688 h 1.321 c 0.293,0 0.695,0.035 1.211,0.109 0.511,0.074 0.988,0.113 1.425,0.113 4.11,0 7.594,-1.062 10.45,-3.191 2.859,-2.129 4.292,-5.977 4.292,-11.551 v -70.179 c 0,-4.25 0.625,-7.258 1.872,-9.02 1.242,-1.762 4.14,-2.641 8.687,-2.641 v -7.918 c -1.316,-0.441 -3.117,-0.808 -5.387,-1.101 -2.277,-0.293 -4.511,-0.442 -6.711,-0.442 -4.253,0 -7.519,0.661 -9.793,1.981 -2.273,1.32 -3.957,3.082 -5.058,5.281 -1.098,2.199 -1.762,4.656 -1.981,7.371 -0.218,2.711 -0.328,5.387 -0.328,8.028 z m 20.461,32.781 c 0,-3.371 -1.137,-6.195 -3.41,-8.469 -2.273,-2.273 -5.098,-3.41 -8.473,-3.41 -3.371,0 -6.195,1.137 -8.468,3.41 -2.274,2.274 -3.411,5.098 -3.411,8.469 0,3.668 1.137,6.676 3.411,9.02 2.273,2.347 5.097,3.519 8.468,3.519 3.375,0 6.2,-1.172 8.473,-3.519 2.273,-2.344 3.41,-5.352 3.41,-9.02 z M 881.211,461.117 c 0,-3.519 0.144,-6.269 0.437,-8.25 0.297,-1.98 0.844,-3.445 1.653,-4.398 0.804,-0.953 1.906,-1.578 3.297,-1.871 1.394,-0.293 3.191,-0.442 5.39,-0.442 v -8.797 c -1.32,-0.441 -2.933,-0.808 -4.84,-1.101 -1.906,-0.293 -3.886,-0.442 -5.937,-0.442 -4.586,0 -8.617,0.918 -12.027,2.754 -3.411,1.828 -5.426,5.094 -6.012,9.785 -3.668,-3.664 -8.07,-6.781 -13.203,-9.347 -5.133,-2.567 -11.879,-3.848 -20.239,-3.848 -3.812,0 -7.664,0.438 -11.55,1.317 -3.887,0.882 -7.407,2.496 -10.559,4.843 -3.152,2.344 -5.758,5.496 -7.812,9.457 -2.055,3.961 -3.079,9.02 -3.079,15.18 0,7.629 1.942,13.863 5.829,18.699 3.886,4.844 8.691,8.657 14.41,11.442 5.719,2.785 11.844,4.695 18.371,5.722 6.523,1.024 12.504,1.61 17.93,1.758 1.32,0 2.859,0 4.621,0 1.757,0 3.297,-0.074 4.617,-0.219 v 3.297 c 0,6.602 -1.574,11.625 -4.731,15.074 -3.152,3.442 -9.199,5.168 -18.148,5.168 -6.598,0 -12.172,-0.843 -16.719,-2.531 -4.547,-1.687 -8.945,-3.996 -13.203,-6.929 h -2.199 c -1.172,1.906 -2.16,3.96 -2.969,6.16 -0.805,2.199 -1.207,3.961 -1.207,5.281 0,1.906 1.172,3.699 3.516,5.387 2.347,1.687 5.39,3.191 9.132,4.511 3.739,1.321 7.883,2.348 12.43,3.082 4.547,0.735 9.02,1.098 13.422,1.098 7.477,0 13.711,-0.809 18.734,-2.422 4.989,-1.609 9.055,-4.031 12.172,-7.258 3.117,-3.226 5.317,-7.257 6.563,-12.097 1.285,-4.844 1.91,-10.414 1.91,-16.723 z m -18.481,28.16 h -6.378 c -4.696,0 -9.461,-0.293 -14.301,-0.879 -4.84,-0.585 -9.242,-1.687 -13.203,-3.3 -3.961,-1.614 -7.184,-3.852 -9.676,-6.711 -2.496,-2.86 -3.742,-6.637 -3.742,-11.328 0,-4.403 1.32,-8.286 3.961,-11.661 2.64,-3.375 7.554,-5.058 14.738,-5.058 3.812,0 7.445,0.547 10.891,1.648 3.449,1.102 6.488,2.457 9.128,4.071 2.641,1.613 4.731,3.375 6.274,5.277 1.539,1.91 2.308,3.742 2.308,5.504 z m 137.72,-52.14 h -18.262 v 8.984 c -1.172,-1.211 -2.637,-2.527 -4.399,-4.035 -1.762,-1.465 -3.848,-2.824 -6.269,-3.996 -2.418,-1.207 -5.172,-2.199 -8.25,-3.043 -3.082,-0.805 -6.454,-1.207 -10.118,-1.207 -5.722,0 -11.222,0.949 -16.504,2.859 -5.281,1.906 -9.933,4.949 -13.968,9.129 -4.032,4.18 -7.223,9.68 -9.571,16.5 -2.343,6.82 -3.519,15.145 -3.519,24.969 0,9.68 1.211,18.043 3.629,25.082 2.422,7.039 5.644,12.793 9.679,17.269 4.036,4.473 8.731,7.809 14.082,10.008 5.352,2.203 10.891,3.301 16.61,3.301 6.598,0 12.207,-1.098 16.828,-3.301 4.621,-2.199 8.398,-4.691 11.332,-7.48 v 60.945 h 1.32 c 0.293,0 0.696,0.035 1.211,0.106 0.512,0.074 0.989,0.113 1.43,0.113 4.105,0 7.59,-1.027 10.449,-3.082 2.86,-2.055 4.29,-5.867 4.29,-11.438 z m -71.282,52.468 c 0,-5.718 0.441,-10.96 1.324,-15.8 0.875,-4.805 2.418,-9.02 4.656,-12.614 2.2,-3.593 5.098,-6.343 8.723,-8.324 3.598,-1.98 8.07,-2.969 13.352,-2.969 3.554,0 6.816,0.442 9.824,1.321 3.043,0.879 5.644,1.98 7.844,3.297 2.238,1.32 3.925,2.824 5.097,4.586 1.176,1.757 1.762,3.519 1.762,5.281 v 51.332 h 0.219 c -0.879,0.879 -2.016,1.98 -3.41,3.297 -1.43,1.324 -3.192,2.531 -5.317,3.707 -2.125,1.172 -4.582,2.164 -7.406,2.969 -2.785,0.804 -5.977,1.21 -9.496,1.21 -8.399,0 -15.031,-3.152 -19.875,-9.425 -4.875,-6.305 -7.297,-15.582 -7.297,-27.868 z m 181.282,-28.488 c 0,-3.519 0.14,-6.269 0.44,-8.25 0.29,-1.98 0.84,-3.445 1.65,-4.398 0.81,-0.953 1.91,-1.578 3.3,-1.871 1.39,-0.293 3.19,-0.442 5.39,-0.442 v -8.797 c -1.32,-0.441 -2.93,-0.808 -4.84,-1.101 -1.91,-0.293 -3.89,-0.442 -5.94,-0.442 -4.58,0 -8.62,0.918 -12.03,2.754 -3.41,1.828 -5.42,5.094 -6.01,9.785 -3.67,-3.664 -8.07,-6.781 -13.2,-9.347 -5.13,-2.567 -11.88,-3.848 -20.24,-3.848 -3.81,0 -7.67,0.438 -11.55,1.317 -3.89,0.882 -7.41,2.496 -10.56,4.843 -3.15,2.344 -5.76,5.496 -7.81,9.457 -2.05,3.961 -3.08,9.02 -3.08,15.18 0,7.629 1.94,13.863 5.83,18.699 3.89,4.844 8.69,8.657 14.41,11.442 5.72,2.785 11.84,4.695 18.37,5.722 6.53,1.024 12.5,1.61 17.93,1.758 1.32,0 2.86,0 4.62,0 1.76,0 3.3,-0.074 4.62,-0.219 v 3.297 c 0,6.602 -1.57,11.625 -4.73,15.074 -3.15,3.442 -9.2,5.168 -18.15,5.168 -6.6,0 -12.17,-0.843 -16.72,-2.531 -4.54,-1.687 -8.95,-3.996 -13.2,-6.929 h -2.2 c -1.17,1.906 -2.16,3.96 -2.97,6.16 -0.81,2.199 -1.21,3.961 -1.21,5.281 0,1.906 1.17,3.699 3.52,5.387 2.35,1.687 5.39,3.191 9.13,4.511 3.74,1.321 7.88,2.348 12.43,3.082 4.55,0.735 9.02,1.098 13.42,1.098 7.48,0 13.71,-0.809 18.73,-2.422 4.99,-1.609 9.06,-4.031 12.18,-7.258 3.12,-3.226 5.32,-7.257 6.56,-12.097 1.29,-4.844 1.91,-10.414 1.91,-16.723 z m -18.48,28.16 h -6.38 c -4.7,0 -9.46,-0.293 -14.3,-0.879 -4.84,-0.585 -9.24,-1.687 -13.2,-3.3 -3.96,-1.614 -7.19,-3.852 -9.68,-6.711 -2.49,-2.86 -3.74,-6.637 -3.74,-11.328 0,-4.403 1.32,-8.286 3.96,-11.661 2.64,-3.375 7.55,-5.058 14.74,-5.058 3.81,0 7.44,0.547 10.89,1.648 3.45,1.102 6.49,2.457 9.13,4.071 2.64,1.613 4.73,3.375 6.27,5.277 1.54,1.91 2.31,3.742 2.31,5.504 z M 20.5703,240.645 H 0.988281 v 147.398 c 0.589849,0 1.175779,0.074 1.800779,0.223 0.58594,0 1.17188,0.035 1.75782,0.105 0.58593,0.074 1.28125,0.113 2.01562,0.113 1.32031,0 2.78516,-0.183 4.3242,-0.55 1.5821,-0.368 3.0821,-1.028 4.5469,-1.981 1.5078,-0.953 2.7148,-2.344 3.707,-4.18 0.9532,-1.832 1.4297,-4.214 1.4297,-7.148 z m 36.5195,104.062 c 3.375,0 6.4141,-0.848 9.1329,-2.531 2.7109,-1.688 4.3593,-4.586 4.9492,-8.692 3.3711,3.375 7.957,6.379 13.75,9.02 5.789,2.641 12.6484,3.961 20.5661,3.961 9.977,0 17.602,-2.203 22.883,-6.602 5.277,-4.398 8.723,-9.898 10.336,-16.5 0.734,-2.929 1.176,-6.195 1.324,-9.789 0.145,-3.594 0.219,-7.078 0.219,-10.449 v -62.48 h -18.699 v 61.82 c 0,2.785 -0.039,5.465 -0.11,8.027 -0.074,2.571 -0.476,4.949 -1.211,7.153 -1.027,3.812 -3.152,6.746 -6.382,8.8 -3.227,2.051 -7.993,3.078 -14.2972,3.078 -8.3633,0 -15.0352,-1.648 -20.0195,-4.949 -4.9883,-3.301 -7.4805,-6.859 -7.4805,-10.672 V 240.645 H 53.3477 v 103.839 h 1.1015 c 0.293,0 0.6953,0.036 1.211,0.11 0.5117,0.074 0.9921,0.113 1.4296,0.113 z m 176.4412,27.496 c -2.496,3.082 -5.535,5.539 -9.133,7.371 -3.593,1.836 -7.664,2.75 -12.21,2.75 -6.598,0 -11.731,-1.797 -15.399,-5.39 -3.668,-3.594 -5.5,-9.789 -5.5,-18.586 V 344.047 H 228.25 V 327.984 H 191.289 V 240.645 H 172.59 v 114.839 c 0,14.227 3.301,24.934 9.898,32.121 6.602,7.184 16.133,10.782 28.602,10.782 4.547,0 8.726,-0.516 12.539,-1.543 3.812,-1.028 7.078,-2.274 9.789,-3.739 2.715,-1.468 4.805,-3.046 6.273,-4.734 1.465,-1.683 2.2,-3.262 2.2,-4.726 0,-2.055 -0.586,-4.071 -1.762,-6.051 -1.172,-1.981 -2.422,-3.778 -3.738,-5.391 z m 104.278,-79.422 c 0,-7.183 -0.879,-14.113 -2.641,-20.789 -1.758,-6.672 -4.582,-12.574 -8.434,-17.707 -3.882,-5.133 -8.906,-9.242 -15.031,-12.32 -6.16,-3.078 -13.64,-4.621 -22.402,-4.621 -8.762,0 -16.207,1.469 -22.293,4.402 -6.051,2.93 -11,6.891 -14.813,11.879 -3.781,4.988 -6.566,10.816 -8.324,17.492 -1.762,6.672 -2.641,13.676 -2.641,21.008 0,7.332 1.024,14.297 3.079,20.898 2.054,6.602 5.136,12.36 9.203,17.27 4.109,4.914 9.203,8.836 15.258,11.77 6.085,2.933 13.234,4.402 21.41,4.402 8.617,0 15.949,-1.469 21.965,-4.402 5.972,-2.934 10.89,-6.856 14.703,-11.77 3.773,-4.91 6.562,-10.594 8.32,-17.051 1.762,-6.449 2.641,-13.269 2.641,-20.461 z m -19.579,0 c 0,4.547 -0.402,9.059 -1.21,13.535 -0.805,4.473 -2.239,8.504 -4.29,12.098 -2.054,3.594 -4.914,6.492 -8.582,8.691 -3.668,2.2 -8.433,3.301 -14.3,3.301 -5.571,0 -10.231,-1.101 -13.969,-3.301 -3.738,-2.199 -6.707,-5.097 -8.91,-8.691 -2.199,-3.594 -3.778,-7.625 -4.731,-12.098 -0.953,-4.476 -1.425,-8.988 -1.425,-13.535 0,-4.547 0.402,-9.164 1.207,-13.855 0.808,-4.696 2.308,-8.91 4.507,-12.653 2.203,-3.738 5.133,-6.82 8.801,-9.238 3.668,-2.422 8.36,-3.629 14.082,-3.629 5.867,0 10.707,1.207 14.52,3.629 3.812,2.418 6.746,5.5 8.8,9.238 2.051,3.743 3.485,7.957 4.29,12.653 0.808,4.691 1.21,9.308 1.21,13.855 z m 50.602,51.926 c 3.371,0 6.414,-0.848 9.125,-2.531 2.719,-1.688 4.367,-4.512 4.953,-8.473 2.051,3.082 5.133,5.981 9.238,8.692 4.11,2.714 8.875,4.07 14.301,4.07 1.614,0 3.336,-0.149 5.172,-0.442 1.832,-0.293 3.555,-0.769 5.168,-1.429 1.613,-0.66 2.934,-1.574 3.961,-2.75 1.027,-1.172 1.539,-2.715 1.539,-4.617 0,-2.348 -0.586,-4.879 -1.762,-7.594 -1.172,-2.711 -2.343,-4.949 -3.519,-6.707 -1.906,1.758 -3.961,3.117 -6.16,4.07 -2.2,0.949 -4.985,1.426 -8.36,1.426 -2.492,0 -4.875,-0.402 -7.148,-1.207 -2.274,-0.809 -4.293,-1.906 -6.051,-3.301 -1.758,-1.391 -3.152,-2.969 -4.18,-4.73 -1.023,-1.758 -1.539,-3.594 -1.539,-5.5 v -73.039 h -18.699 v 103.839 h 1.539 c 0.438,0 0.879,0.036 1.32,0.11 0.442,0.074 0.805,0.113 1.102,0.113 z m 123.418,1.758 c 5.277,0 10.707,-1.102 16.281,-3.301 5.574,-2.199 9.75,-5.648 12.539,-10.34 3.375,3.668 7.953,6.86 13.75,9.571 5.793,2.714 12.43,4.07 19.91,4.07 9.532,0 16.938,-2.203 22.219,-6.602 5.281,-4.398 8.653,-9.898 10.121,-16.5 0.735,-2.929 1.172,-6.195 1.317,-9.789 0.148,-3.594 0.222,-7.078 0.222,-10.449 v -62.48 H 569.91 v 61.82 c 0,2.785 -0.039,5.465 -0.113,8.027 -0.07,2.571 -0.473,4.949 -1.207,7.153 -1.027,3.812 -3.117,6.746 -6.27,8.8 -3.156,2.051 -7.957,3.078 -14.41,3.078 -4.84,0 -9.347,-1.027 -13.531,-3.078 -4.18,-2.054 -7.297,-4.328 -9.348,-6.82 0.293,-2.496 0.512,-5.098 0.657,-7.809 0.148,-2.714 0.222,-5.539 0.222,-8.472 v -62.699 h -18.699 v 61.82 c 0,3.078 -0.148,5.976 -0.441,8.691 -0.293,2.711 -0.809,5.168 -1.54,7.367 -2.347,7.336 -8.949,11 -19.8,11 -3.227,0 -6.344,-0.441 -9.352,-1.32 -3.008,-0.879 -5.683,-2.055 -8.027,-3.519 -2.348,-1.465 -4.254,-3.114 -5.723,-4.95 -1.465,-1.832 -2.199,-3.629 -2.199,-5.39 V 240.645 H 441.43 v 103.839 h 1.32 c 0.438,0 0.914,0.036 1.43,0.11 0.515,0.074 0.992,0.113 1.429,0.113 3.813,0 6.93,-0.922 9.348,-2.754 2.422,-1.832 3.926,-4.656 4.512,-8.469 3.371,3.52 7.847,6.563 13.422,9.129 5.574,2.567 12.023,3.852 19.359,3.852 z m 206.359,-81.84 c 0,-3.523 0.149,-6.273 0.442,-8.25 0.293,-1.98 0.844,-3.445 1.648,-4.398 0.809,-0.957 1.906,-1.579 3.301,-1.872 1.395,-0.296 3.191,-0.441 5.391,-0.441 v -8.801 c -1.321,-0.437 -2.934,-0.804 -4.84,-1.097 -1.906,-0.293 -3.887,-0.442 -5.942,-0.442 -4.582,0 -8.617,0.914 -12.027,2.75 -3.41,1.836 -5.426,5.098 -6.012,9.789 -3.668,-3.668 -8.066,-6.781 -13.199,-9.351 -5.133,-2.563 -11.883,-3.848 -20.242,-3.848 -3.813,0 -7.664,0.441 -11.551,1.32 -3.887,0.879 -7.406,2.493 -10.558,4.84 -3.153,2.348 -5.758,5.5 -7.809,9.461 -2.055,3.961 -3.082,9.02 -3.082,15.18 0,7.625 1.945,13.859 5.832,18.699 3.887,4.84 8.691,8.652 14.406,11.438 5.723,2.789 11.848,4.695 18.375,5.722 6.524,1.028 12.5,1.614 17.926,1.758 1.32,0 2.863,0 4.621,0 1.762,0 3.301,-0.07 4.621,-0.215 v 3.297 c 0,6.602 -1.574,11.625 -4.73,15.07 -3.153,3.446 -9.203,5.172 -18.153,5.172 -6.597,0 -12.172,-0.847 -16.718,-2.531 -4.543,-1.687 -8.946,-4 -13.2,-6.93 h -2.199 c -1.176,1.907 -2.164,3.961 -2.972,6.16 -0.805,2.2 -1.208,3.961 -1.208,5.278 0,1.906 1.172,3.707 3.52,5.39 2.348,1.688 5.391,3.192 9.129,4.512 3.742,1.32 7.883,2.348 12.43,3.078 4.546,0.735 9.019,1.102 13.421,1.102 7.481,0 13.711,-0.809 18.735,-2.418 4.988,-1.613 9.058,-4.035 12.176,-7.262 3.113,-3.226 5.316,-7.262 6.562,-12.101 1.285,-4.84 1.906,-10.414 1.906,-16.719 z m -18.476,28.156 h -6.383 c -4.695,0 -9.457,-0.289 -14.301,-0.875 -4.84,-0.59 -9.242,-1.687 -13.199,-3.301 -3.961,-1.613 -7.187,-3.851 -9.68,-6.71 -2.492,-2.86 -3.742,-6.637 -3.742,-11.329 0,-4.402 1.324,-8.289 3.961,-11.664 2.641,-3.371 7.555,-5.058 14.742,-5.058 3.813,0 7.442,0.551 10.891,1.648 3.445,1.102 6.488,2.461 9.129,4.071 2.64,1.613 4.726,3.375 6.269,5.281 1.539,1.906 2.313,3.738 2.313,5.5 z m 53.68,-38.937 c -1.028,2.785 -1.653,5.832 -1.872,9.129 -0.222,3.3 -0.328,6.566 -0.328,9.793 v 102.961 h 1.317 c 0.293,0 0.695,0.035 1.211,0.109 0.511,0.07 0.988,0.105 1.429,0.105 3.961,0 7.407,-1.023 10.34,-3.039 2.934,-2.054 4.403,-5.757 4.403,-11.148 v -17.492 h 32.777 v -16.059 h -32.777 v -56.758 c 0,-12.027 4.765,-18.039 14.296,-18.039 2.348,0 4.547,0.399 6.602,1.207 2.055,0.805 3.887,1.762 5.5,2.864 1.613,1.097 2.969,2.16 4.07,3.187 1.102,1.027 1.793,1.762 2.09,2.199 1.762,-2.199 3.262,-4.324 4.508,-6.379 1.25,-2.054 1.871,-4.031 1.871,-5.941 0,-1.32 -0.66,-2.75 -1.98,-4.289 -1.317,-1.539 -3.153,-2.969 -5.5,-4.289 -2.348,-1.32 -5.243,-2.418 -8.692,-3.301 -3.445,-0.879 -7.223,-1.32 -11.328,-1.32 -7.625,0 -13.711,1.469 -18.258,4.402 -4.547,2.93 -7.777,6.965 -9.679,12.098 z m 119.531,-27.5 c -1.614,-4.692 -3.375,-9.168 -5.281,-13.418 -1.907,-4.254 -4.29,-7.957 -7.079,-11.113 -2.785,-3.153 -6.195,-5.684 -10.226,-7.586 -4.035,-1.911 -8.91,-2.864 -14.633,-2.864 -5.609,0 -10.266,0.809 -14.004,2.387 -3.738,1.613 -5.609,4.066 -5.609,7.371 0,2.051 0.551,4.141 1.648,6.34 1.102,2.164 2.238,4.07 3.41,5.684 1.172,-1.028 2.973,-2.239 5.391,-3.629 2.457,-1.395 5.5,-2.094 9.164,-2.094 5.137,0 9.277,1.91 12.43,5.758 3.156,3.851 6.015,9.754 8.508,17.711 l 3.082,9.972 h -7.481 l -35.601,102.082 c 3.078,1.172 6.304,1.762 9.679,1.762 3.813,0 6.895,-1.25 9.238,-3.742 2.348,-2.492 4.106,-5.426 5.282,-8.801 l 24.199,-75.019 24.199,73.039 c 0.442,1.613 1.028,3.265 1.758,4.953 0.734,1.683 1.723,3.261 2.973,4.726 1.246,1.469 2.75,2.641 4.507,3.52 1.762,0.879 3.887,1.324 6.383,1.324 2.934,0 5.645,-0.66 8.137,-1.984 z m 102.226,27.062 c 3.961,0 7.516,0.621 10.672,1.867 3.153,1.25 5.828,2.68 8.028,4.29 2.64,1.761 4.988,3.812 7.039,6.16 1.175,-1.172 2.675,-2.965 4.511,-5.387 1.832,-2.422 2.75,-4.66 2.75,-6.711 0,-2.09 -1.539,-4.473 -4.621,-7.152 -2.785,-2.528 -6.785,-4.653 -11.988,-6.45 -5.207,-1.796 -11.551,-2.679 -19.031,-2.679 -4.692,0 -9.864,0.66 -15.508,1.98 -5.649,1.321 -10.93,3.961 -15.879,7.922 -4.949,3.957 -9.129,9.496 -12.539,16.609 -3.41,7.114 -5.133,16.536 -5.133,28.27 0,10.852 1.797,19.801 5.352,26.84 3.558,7.039 7.918,12.578 13.09,16.609 5.171,4.035 10.636,6.86 16.425,8.473 5.793,1.609 10.891,2.418 15.289,2.418 5.282,0 10.012,-0.551 14.192,-1.613 4.179,-1.102 7.773,-2.457 10.781,-4.145 3.008,-1.648 5.316,-3.445 6.93,-5.316 1.613,-1.871 2.422,-3.703 2.422,-5.426 0,-1.762 -0.586,-3.742 -1.762,-5.942 -1.172,-2.199 -2.348,-4.105 -3.52,-5.718 h -2.422 c -2.492,2.933 -5.718,5.683 -9.679,8.25 -3.961,2.566 -9.313,3.851 -16.059,3.851 -5.574,0 -10.34,-0.953 -14.301,-2.863 -3.961,-1.906 -7.222,-4.582 -9.789,-8.027 -2.566,-3.45 -4.437,-7.481 -5.609,-12.102 -1.176,-4.617 -1.762,-9.57 -1.762,-14.848 0,-5.429 0.586,-10.527 1.762,-15.293 1.172,-4.765 3.043,-8.906 5.609,-12.429 2.567,-3.52 5.903,-6.305 10.012,-8.36 4.102,-2.054 9.02,-3.078 14.738,-3.078" /><path
         id="path16"
         style="fill:#231f20;fill-opacity:1;fill-rule:nonzero;stroke:none"
         d="m 1001.77,240.645 v 13.64 l 56.98,74.137 h -56.1 c 0,5.355 1.14,9.391 3.41,12.066 2.27,2.676 5.98,3.996 11.11,3.996 h 55.88 c 6.16,0 9.24,-2.566 9.24,-7.699 v -5.281 l -58.08,-74.801 h 45.54 c 4.99,0 8.65,-1.211 11,-3.59 2.35,-2.386 3.52,-6.527 3.52,-12.468 z m 107.58,104.062 c 3.37,0 6.42,-0.848 9.13,-2.531 2.72,-1.688 4.36,-4.586 4.95,-8.692 3.37,3.375 7.96,6.379 13.75,9.02 5.79,2.641 12.65,3.961 20.57,3.961 9.97,0 17.6,-2.203 22.88,-6.602 5.28,-4.398 8.73,-9.898 10.34,-16.5 0.73,-2.929 1.17,-6.195 1.32,-9.789 0.15,-3.594 0.22,-7.078 0.22,-10.449 v -62.48 h -18.7 v 61.82 c 0,2.785 -0.04,5.465 -0.11,8.027 -0.07,2.571 -0.48,4.949 -1.21,7.153 -1.03,3.812 -3.15,6.746 -6.38,8.8 -3.23,2.051 -8,3.078 -14.3,3.078 -8.36,0 -15.03,-1.648 -20.02,-4.949 -4.99,-3.301 -7.48,-6.859 -7.48,-10.672 v -73.257 h -18.7 v 103.839 h 1.1 c 0.29,0 0.7,0.036 1.21,0.11 0.51,0.074 0.99,0.113 1.43,0.113 z m 193.16,-80.082 c 0,-3.523 0.15,-6.273 0.44,-8.25 0.29,-1.98 0.84,-3.445 1.65,-4.398 0.81,-0.957 1.91,-1.579 3.3,-1.872 1.39,-0.296 3.19,-0.441 5.39,-0.441 v -8.801 c -1.32,-0.437 -2.93,-0.804 -4.84,-1.097 -1.91,-0.293 -3.89,-0.442 -5.94,-0.442 -4.58,0 -8.62,0.914 -12.03,2.75 -3.41,1.836 -5.43,5.098 -6.01,9.789 -3.67,-3.668 -8.07,-6.781 -13.2,-9.351 -5.13,-2.563 -11.88,-3.848 -20.24,-3.848 -3.82,0 -7.66,0.441 -11.55,1.32 -3.89,0.879 -7.41,2.493 -10.56,4.84 -3.15,2.348 -5.76,5.5 -7.81,9.461 -2.05,3.961 -3.08,9.02 -3.08,15.18 0,7.625 1.94,13.859 5.83,18.699 3.89,4.84 8.69,8.652 14.41,11.438 5.72,2.789 11.84,4.695 18.37,5.722 6.53,1.028 12.5,1.614 17.93,1.758 1.32,0 2.86,0 4.62,0 1.76,0 3.3,-0.07 4.62,-0.215 v 3.297 c 0,6.602 -1.58,11.625 -4.73,15.07 -3.15,3.446 -9.2,5.172 -18.15,5.172 -6.6,0 -12.18,-0.847 -16.72,-2.531 -4.55,-1.687 -8.95,-4 -13.2,-6.93 h -2.2 c -1.17,1.907 -2.17,3.961 -2.97,6.16 -0.81,2.2 -1.21,3.961 -1.21,5.278 0,1.906 1.17,3.707 3.52,5.39 2.35,1.688 5.39,3.192 9.13,4.512 3.74,1.32 7.88,2.348 12.43,3.078 4.54,0.735 9.02,1.102 13.42,1.102 7.48,0 13.71,-0.809 18.74,-2.418 4.98,-1.613 9.06,-4.035 12.17,-7.262 3.12,-3.226 5.32,-7.262 6.57,-12.101 1.28,-4.84 1.9,-10.414 1.9,-16.719 z m -18.48,28.156 h -6.38 c -4.69,0 -9.46,-0.289 -14.3,-0.875 -4.84,-0.59 -9.24,-1.687 -13.2,-3.301 -3.96,-1.613 -7.19,-3.851 -9.68,-6.71 -2.49,-2.86 -3.74,-6.637 -3.74,-11.329 0,-4.402 1.32,-8.289 3.96,-11.664 2.64,-3.371 7.55,-5.058 14.74,-5.058 3.81,0 7.44,0.551 10.89,1.648 3.45,1.102 6.49,2.461 9.13,4.071 2.64,1.613 4.73,3.375 6.27,5.281 1.54,1.906 2.31,3.738 2.31,5.5 z M 285.559,59.332 c 0,-3.0781 -0.071,-6.2343 -0.219,-9.4609 -0.145,-3.2266 -0.367,-6.5234 -0.66,-9.8984 -0.442,-4.2539 -1.43,-8.4727 -2.969,-12.6524 -1.543,-4.1797 -3.742,-7.918 -6.602,-11.2187 -2.859,-3.3008 -6.414,-5.9766 -10.671,-8.03129 -4.25,-2.05078 -9.309,-3.08203 -15.176,-3.08203 -4.696,0 -7.813,1.03125 -9.352,3.08203 -1.543,2.05469 -2.308,4.62109 -2.308,7.69919 0,0.8828 0,1.7969 0,2.75 0,0.9571 0.074,1.7969 0.218,2.5313 10.707,0 18.149,2.125 22.328,6.3828 4.18,4.25 6.274,11.3672 6.274,21.3359 V 191.332 c 0.73,0.293 1.613,0.477 2.637,0.551 1.027,0.07 1.91,0.109 2.64,0.109 1.321,0 2.785,-0.148 4.403,-0.441 1.613,-0.293 3.113,-0.953 4.507,-1.981 1.395,-1.027 2.567,-2.422 3.52,-4.179 0.957,-1.762 1.43,-4.032 1.43,-6.821 z m 73.261,-2.4179 c 3.957,0 7.59,0.5468 10.891,1.6484 3.297,1.0977 6.121,2.4531 8.469,4.0664 2.347,1.6524 4.179,3.375 5.5,5.207 1.32,1.836 1.98,3.4844 1.98,4.9493 v 75.8628 h 1.317 c 0.296,0 0.699,0.04 1.211,0.114 0.515,0.074 0.992,0.109 1.433,0.109 4.106,0 7.586,-1.062 10.449,-3.187 2.86,-2.129 4.289,-5.981 4.289,-11.555 V 44.1523 H 385.66 v 9.4961 c -2.933,-3.3398 -7.043,-6.2734 -12.32,-8.875 -5.281,-2.6015 -12.102,-3.9218 -20.461,-3.9218 -8.504,0 -15.106,1.3203 -19.797,3.9609 -4.695,2.6367 -8.18,6.0117 -10.453,10.1172 -2.274,4.1094 -3.629,8.6172 -4.07,13.5312 -0.442,4.9102 -0.657,9.6446 -0.657,14.1914 v 65.9957 h 1.317 c 0.297,0 0.695,0.04 1.211,0.114 0.511,0.074 0.988,0.109 1.429,0.109 4.106,0 7.59,-1.027 10.45,-3.082 2.859,-2.051 4.293,-5.902 4.293,-11.473 V 82.5039 c 0,-5.7578 0.402,-10.3008 1.207,-13.6797 0.808,-3.3711 2.457,-5.9726 4.953,-7.7344 2.199,-1.6132 4.582,-2.7109 7.148,-3.3007 2.567,-0.586 5.535,-0.875 8.91,-0.875 z m 81.836,91.2969 c 3.379,0 6.418,-0.844 9.133,-2.527 2.715,-1.688 4.363,-4.586 4.953,-8.692 3.371,3.371 7.957,6.379 13.746,9.02 5.793,2.636 12.653,3.961 20.571,3.961 9.972,0 17.601,-2.203 22.879,-6.602 5.281,-4.402 8.726,-9.902 10.339,-16.5 0.735,-2.933 1.176,-6.195 1.325,-9.789 0.144,-3.594 0.214,-7.078 0.214,-10.449 V 44.1523 h -18.699 v 61.8207 c 0,2.785 -0.035,5.461 -0.105,8.027 -0.074,2.566 -0.477,4.953 -1.211,7.152 -1.028,3.813 -3.156,6.746 -6.383,8.797 -3.227,2.055 -7.992,3.082 -14.301,3.082 -8.359,0 -15.031,-1.648 -20.019,-4.949 -4.985,-3.301 -7.481,-6.855 -7.481,-10.668 V 44.1523 H 436.918 V 147.992 h 1.102 c 0.293,0 0.695,0.035 1.21,0.11 0.512,0.07 0.989,0.109 1.426,0.109 z m 115.504,0.437 h 1.32 c 0.29,0 0.696,0.04 1.208,0.114 0.515,0.074 0.992,0.109 1.429,0.109 4.11,0 7.594,-1.062 10.453,-3.187 2.86,-2.129 4.289,-5.981 4.289,-11.555 V 63.9492 c 0,-4.25 0.621,-7.2578 1.871,-9.0195 1.247,-1.7578 4.145,-2.6367 8.688,-2.6367 v -7.9219 c -1.32,-0.4375 -3.117,-0.8086 -5.391,-1.0977 -2.273,-0.2968 -4.507,-0.4453 -6.707,-0.4453 -4.254,0 -7.519,0.6602 -9.793,1.9844 -2.273,1.3203 -3.961,3.0781 -5.058,5.2813 -1.102,2.1992 -1.762,4.6523 -1.981,7.3671 -0.218,2.7149 -0.328,5.3907 -0.328,8.0274 z m 20.457,32.782 c 0,-3.375 -1.137,-6.196 -3.41,-8.469 -2.273,-2.273 -5.094,-3.41 -8.469,-3.41 -3.371,0 -6.195,1.137 -8.468,3.41 -2.274,2.273 -3.411,5.094 -3.411,8.469 0,3.668 1.137,6.675 3.411,9.019 2.273,2.348 5.097,3.52 8.468,3.52 3.375,0 6.196,-1.172 8.469,-3.52 2.273,-2.344 3.41,-5.351 3.41,-9.019 z M 700.262,96.293 c 0,-7.1875 -0.883,-14.1172 -2.645,-20.793 -1.758,-6.6758 -4.582,-12.5742 -8.433,-17.7109 -3.883,-5.1328 -8.907,-9.2383 -15.032,-12.3164 -6.16,-3.0821 -13.64,-4.6211 -22.402,-4.6211 -8.766,0 -16.207,1.4648 -22.293,4.3984 -6.051,2.9336 -11,6.8945 -14.812,11.8789 -3.782,4.9883 -6.567,10.8203 -8.325,17.4922 -1.761,6.6719 -2.64,13.6758 -2.64,21.0078 0,7.3361 1.023,14.3011 3.078,20.9021 2.055,6.598 5.137,12.356 9.203,17.27 4.105,4.914 9.203,8.836 15.258,11.769 6.082,2.934 13.234,4.403 21.41,4.403 8.617,0 15.953,-1.469 21.965,-4.403 5.972,-2.933 10.89,-6.855 14.703,-11.769 3.773,-4.914 6.562,-10.598 8.32,-17.051 1.762,-6.453 2.645,-13.273 2.645,-20.457 z m -19.582,0 c 0,4.543 -0.403,9.055 -1.211,13.527 -0.805,4.473 -2.239,8.508 -4.289,12.102 -2.051,3.59 -4.914,6.488 -8.582,8.687 -3.664,2.2 -8.434,3.301 -14.301,3.301 -5.57,0 -10.227,-1.101 -13.969,-3.301 -3.738,-2.199 -6.707,-5.097 -8.91,-8.687 -2.199,-3.594 -3.777,-7.629 -4.73,-12.102 -0.954,-4.472 -1.426,-8.984 -1.426,-13.527 0,-4.5469 0.402,-9.168 1.207,-13.8633 0.808,-4.6914 2.312,-8.9102 4.511,-12.6484 2.2,-3.7422 5.133,-6.8204 8.797,-9.2422 3.668,-2.418 8.36,-3.625 14.082,-3.625 5.868,0 10.707,1.207 14.52,3.625 3.812,2.4218 6.75,5.5 8.801,9.2422 2.05,3.7382 3.484,7.957 4.289,12.6484 0.808,4.6953 1.211,9.3164 1.211,13.8633 z m 50.601,51.918 c 3.371,0 6.414,-0.844 9.129,-2.527 2.711,-1.688 4.363,-4.512 4.949,-8.473 2.051,3.078 5.133,5.977 9.243,8.691 4.101,2.711 8.871,4.071 14.296,4.071 1.614,0 3.336,-0.149 5.172,-0.442 1.832,-0.293 3.555,-0.769 5.168,-1.429 1.614,-0.664 2.934,-1.579 3.961,-2.75 1.028,-1.176 1.539,-2.715 1.539,-4.622 0,-2.343 -0.586,-4.875 -1.761,-7.589 -1.172,-2.711 -2.344,-4.95 -3.516,-6.707 -1.91,1.757 -3.961,3.113 -6.16,4.066 -2.203,0.953 -4.988,1.43 -8.363,1.43 -2.493,0 -4.875,-0.403 -7.149,-1.211 -2.273,-0.805 -4.289,-1.906 -6.047,-3.297 -1.762,-1.395 -3.156,-2.973 -4.183,-4.731 -1.028,-1.761 -1.539,-3.593 -1.539,-5.5 V 44.1523 h -18.7 V 147.992 h 1.539 c 0.438,0 0.883,0.035 1.321,0.11 0.441,0.07 0.804,0.109 1.101,0.109 z M 894.738,96.293 c 0,-7.1875 -0.879,-14.1172 -2.636,-20.793 -1.762,-6.6758 -4.586,-12.5742 -8.434,-17.7109 -3.891,-5.1328 -8.914,-9.2383 -15.035,-12.3164 -6.16,-3.0821 -13.641,-4.6211 -22.403,-4.6211 -8.765,0 -16.207,1.4648 -22.292,4.3984 -6.051,2.9336 -11,6.8945 -14.817,11.8789 -3.773,4.9883 -6.562,10.8203 -8.32,17.4922 -1.762,6.6719 -2.641,13.6758 -2.641,21.0078 0,7.3361 1.028,14.3011 3.078,20.9021 2.055,6.598 5.133,12.356 9.203,17.27 4.11,4.914 9.207,8.836 15.254,11.769 6.086,2.934 13.239,4.403 21.414,4.403 8.618,0 15.95,-1.469 21.961,-4.403 5.981,-2.933 10.891,-6.855 14.703,-11.769 3.782,-4.914 6.567,-10.598 8.329,-17.051 1.757,-6.453 2.636,-13.273 2.636,-20.457 z m -19.578,0 c 0,4.543 -0.406,9.055 -1.211,13.527 -0.808,4.473 -2.234,8.508 -4.289,12.102 -2.055,3.59 -4.914,6.488 -8.582,8.687 -3.664,2.2 -8.433,3.301 -14.297,3.301 -5.574,0 -10.23,-1.101 -13.972,-3.301 -3.739,-2.199 -6.711,-5.097 -8.911,-8.687 -2.199,-3.594 -3.773,-7.629 -4.726,-12.102 -0.957,-4.472 -1.434,-8.984 -1.434,-13.527 0,-4.5469 0.403,-9.168 1.211,-13.8633 0.809,-4.6914 2.313,-8.9102 4.512,-12.6484 2.199,-3.7422 5.133,-6.8204 8.797,-9.2422 3.668,-2.418 8.363,-3.625 14.082,-3.625 5.867,0 10.707,1.207 14.519,3.625 3.813,2.4218 6.746,5.5 8.801,9.2422 2.055,3.7382 3.481,7.957 4.289,12.6484 0.805,4.6953 1.211,9.3164 1.211,13.8633 z m -19.582,72.379 c -1.613,-1.91 -3.336,-3.41 -5.168,-4.512 -1.832,-1.097 -3.851,-1.648 -6.051,-1.648 -1.613,0 -3.261,0.367 -4.949,1.097 -1.687,0.735 -3.117,1.539 -4.293,2.422 l 18.485,24.199 c 1.613,2.2 3.261,4.036 4.949,5.5 1.687,1.469 3.922,2.2 6.707,2.2 2.055,0 4.258,-0.551 6.601,-1.649 2.348,-1.101 4.329,-2.312 5.942,-3.629 z M 1021.24,43.2734 h -18.7 L 981.859,96.7305 959.199,43.2734 H 942.48 L 906.621,146.672 c 1.613,0.437 3.188,0.805 4.731,1.098 1.539,0.293 3.187,0.441 4.949,0.441 6.894,0 11.515,-3.813 13.859,-11.441 l 22.66,-72.5981 21.121,51.6991 -11.222,31.02 c 2.789,0.879 5.722,1.32 8.801,1.32 6.601,0 11.148,-3.52 13.64,-10.559 l 26.4,-73.7028 18.04,69.7418 c 1.03,3.961 2.57,7.372 4.62,10.231 2.05,2.859 5.21,4.289 9.46,4.289 2.93,0 5.94,-0.586 9.02,-1.762 L 1021.24,43.2734" /><path
         id="path18"
         style="fill:#00a650;fill-opacity:1;fill-rule:evenodd;stroke:none"
         d="m 1151.49,873.344 -71.74,124.254 h -70.57 l 71.74,-124.254 -92.775,-160.696 h 70.565 z M 766.348,776.203 h 143.476 l 35.281,61.11 H 801.629 l -92.777,160.695 -35.282,-61.11 z m 108.441,382.107 -71.734,-124.25 35.281,-61.111 71.734,124.251 h 185.56 l -35.29,61.11 H 874.789" /><path
         id="path20"
         style="fill:#0994dc;fill-opacity:1;fill-rule:evenodd;stroke:none"
         d="m 218.879,776.203 143.476,-0.004 35.282,61.114 H 254.16 l -92.777,160.695 -35.281,-61.11 z M 327.32,1158.31 255.582,1034.06 290.863,972.949 362.602,1097.2 H 548.16 l -35.285,61.11 z M 604.016,873.344 532.277,997.598 H 461.715 L 533.453,873.344 440.676,712.648 h 70.562 l 92.778,160.696" /><path
         id="path22"
         style="fill:#ed1c24;fill-opacity:1;fill-rule:evenodd;stroke:none"
         d="m 601.055,1632.44 -71.739,-124.26 35.286,-61.11 71.738,124.25 h 185.555 l -35.282,61.12 z M 492.609,1250.32 H 636.09 l 35.281,61.12 H 527.895 l -92.778,160.69 -35.285,-61.11 z m 385.141,97.15 -71.738,124.25 h -70.567 l 71.743,-124.25 -92.782,-160.7 h 70.567 l 92.777,160.7" /><path
         id="path24"
         style="fill:#231f20;fill-opacity:1;fill-rule:evenodd;stroke:none"
         d="m 435.652,1221.87 -72.511,125.59 20.281,35.07 92.758,-160.66 h 176.359 l 92.777,160.69 20.27,-35.1 -92.781,-160.69 H 310.891 l -88.176,-152.73 92.777,-160.696 -40.531,-0.004 -92.777,160.7 108.441,187.83 z M 182.184,712.648 89.4063,873.344 109.691,908.41 202.449,747.746 H 378.805 L 471.582,908.441 491.848,873.34 399.07,712.645 Z m 474.957,125.594 -72.516,-125.594 -40.508,0.036 92.758,160.66 -88.176,152.726 H 363.145 l 20.261,35.1 H 568.961 L 749.918,747.746 h 176.355 l 92.777,160.695 20.27,-35.101 -92.781,-160.695 -216.887,0.003 z m 567.739,35.102 -92.78,-160.696 -40.51,0.036 92.75,160.66 -88.17,152.726 H 910.613 l 20.262,35.1 H 1116.43 Z M 878.625,1221.87 h 145.025 l 20.23,-35.1 H 858.363 L 770.184,1034.04 862.961,873.348 822.43,873.344 729.652,1034.04 910.609,1347.47 822.43,1500.2 H 636.879 l 20.262,35.1 h 185.554 l 108.442,-187.83 z m -314.262,474.12 h 185.555 l 20.227,-35.1 h -185.52 l -88.18,-152.73 92.778,-160.69 -40.528,-0.01 -92.777,160.7 108.445,187.83" /></g></g></svg>